<svg width="67" height="45" viewBox="0 0 67 45" fill="none" xmlns="http://www.w3.org/2000/svg">
<path fill-rule="evenodd" clip-rule="evenodd" d="M35.3231 31.6539C33.0242 31.75 31.6055 31.6014 29.6228 30.8808C30.2467 29.6186 36.3572 23.4997 37.7716 21.971C40.0791 19.4772 43.9846 16.9745 44.2667 11.6374C44.8521 0.4434 32.5541 -3.37383 25.7514 3.27357C22.7944 6.16052 20.1878 9.01252 17.2693 11.9213L2.61257 26.8365C-4.82688 35.2877 4.86022 49.8141 16.1284 43.42C19.5853 41.459 21.2219 39.0263 26.606 37.1002C33.819 34.5233 40.1645 35.3051 46.3349 39.76C48.1296 41.0616 49.0825 42.2582 50.9327 43.4375C55.4579 46.3288 60.6454 44.7041 63.7648 42.0835C66.6149 39.6858 68.0892 34.1521 66.0552 29.4133C64.4913 25.7752 60.6967 22.8358 55.5904 23.1634C50.7575 23.4735 48.4629 27.3125 44.553 28.863C43.9035 29.2561 43.3522 29.4919 42.6814 29.7802C40.3824 30.7541 37.8613 31.5534 35.3231 31.6539Z" fill="#008DBB"/>
</svg>
