<svg width="64" height="43" viewBox="0 0 64 43" fill="none" xmlns="http://www.w3.org/2000/svg">
<path fill-rule="evenodd" clip-rule="evenodd" d="M33.7415 30.247C31.5455 30.3388 30.1904 30.1969 28.2964 29.5083C28.8924 28.3022 34.7293 22.4552 36.0803 20.9945C38.2845 18.6115 42.0152 16.2201 42.2846 11.1202C42.8438 0.423694 31.0965 -3.22388 24.5983 3.12808C21.7738 5.88671 19.2839 8.61196 16.496 11.3915L2.49559 25.6437C-4.61076 33.7193 4.6426 47.6001 15.4062 41.4902C18.7083 39.6164 20.2717 37.2918 25.4147 35.4513C32.3047 32.989 38.3661 33.736 44.2602 37.9929C45.9745 39.2366 46.8848 40.3801 48.6522 41.5069C52.9747 44.2697 57.93 42.7172 60.9096 40.2132C63.6322 37.922 65.0404 32.6342 63.0975 28.1061C61.6036 24.6296 57.9789 21.8209 53.1012 22.1339C48.4848 22.4302 46.2929 26.0986 42.5581 27.5802C41.9376 27.9558 41.4111 28.1812 40.7703 28.4566C38.5743 29.3873 36.166 30.151 33.7415 30.247Z" fill="white"/>
</svg>
